<svg xmlns="http://www.w3.org/2000/svg" style="display:none">
  <symbol id='icon-next' viewBox="0 0 394 80">
    <path d="M261.919 0.0330722H330.547V12.7H303.323V79.339H289.71V12.7H261.919V0.0330722Z" />
    <path d="M149.052 0.0330722V12.7H94.0421V33.0772H138.281V45.7441H94.0421V66.6721H149.052V79.339H80.43V12.7H80.4243V0.0330722H149.052Z" />
    <path d="M183.32 0.0661486H165.506L229.312 79.3721H247.178L215.271 39.7464L247.127 0.126654L229.312 0.154184L206.352 28.6697L183.32 0.0661486Z" />
    <path d="M201.6 56.7148L192.679 45.6229L165.455 79.4326H183.32L201.6 56.7148Z" />
    <path fill-rule="evenodd" clip-rule="evenodd" d="M80.907 79.339L17.0151 0H0V79.3059H13.6121V16.9516L63.8067 79.339H80.907Z" />
    <path d="M333.607 78.8546C332.61 78.8546 331.762 78.5093 331.052 77.8186C330.342 77.1279 329.991 76.2917 330 75.3011C329.991 74.3377 330.342 73.5106 331.052 72.8199C331.762 72.1292 332.61 71.7838 333.607 71.7838C334.566 71.7838 335.405 72.1292 336.115 72.8199C336.835 73.5106 337.194 74.3377 337.204 75.3011C337.194 75.9554 337.028 76.5552 336.696 77.0914C336.355 77.6368 335.922 78.064 335.377 78.373C334.842 78.6911 334.252 78.8546 333.607 78.8546Z" />
    <path d="M356.84 45.4453H362.872V68.6846C362.863 70.8204 362.401 72.6472 361.498 74.1832C360.585 75.7191 359.321 76.8914 357.698 77.7185C356.084 78.5364 354.193 78.9546 352.044 78.9546C350.079 78.9546 348.318 78.6001 346.75 77.9094C345.182 77.2187 343.937 76.1826 343.024 74.8193C342.101 73.456 341.649 71.7565 341.649 69.7207H347.691C347.7 70.6114 347.903 71.3838 348.29 72.0291C348.677 72.6744 349.212 73.1651 349.895 73.5105C350.586 73.8559 351.38 74.0286 352.274 74.0286C353.243 74.0286 354.073 73.8286 354.746 73.4196C355.419 73.0197 355.936 72.4199 356.296 71.6201C356.646 70.8295 356.831 69.8479 356.84 68.6846V45.4453Z" />
    <path d="M387.691 54.5338C387.544 53.1251 386.898 52.0254 385.773 51.2438C384.638 50.4531 383.172 50.0623 381.373 50.0623C380.11 50.0623 379.022 50.2532 378.118 50.6258C377.214 51.0075 376.513 51.5164 376.033 52.1617C375.554 52.807 375.314 53.5432 375.295 54.3703C375.295 55.061 375.461 55.6608 375.784 56.1607C376.107 56.6696 376.54 57.0968 377.103 57.4422C377.656 57.7966 378.274 58.0874 378.948 58.3237C379.63 58.56 380.313 58.76 380.995 58.9236L384.14 59.6961C385.404 59.9869 386.631 60.3778 387.802 60.8776C388.973 61.3684 390.034 61.9955 390.965 62.7498C391.897 63.5042 392.635 64.413 393.179 65.4764C393.723 66.5397 394 67.7848 394 69.2208C394 71.1566 393.502 72.8562 392.496 74.3285C391.491 75.7917 390.043 76.9369 388.143 77.764C386.252 78.582 383.965 79 381.272 79C378.671 79 376.402 78.6002 374.493 77.8004C372.575 77.0097 371.08 75.8463 370.001 74.3194C368.922 72.7926 368.341 70.9294 368.258 68.7391H374.235C374.318 69.8842 374.687 70.8386 375.314 71.6111C375.95 72.3745 376.78 72.938 377.795 73.3197C378.819 73.6923 379.962 73.8832 381.226 73.8832C382.545 73.8832 383.707 73.6832 384.712 73.2924C385.708 72.9016 386.492 72.3564 387.055 71.6475C387.627 70.9476 387.913 70.1206 387.922 69.1754C387.913 68.312 387.654 67.5939 387.156 67.0304C386.649 66.467 385.948 65.9944 385.053 65.6127C384.15 65.231 383.098 64.8856 381.899 64.5857L378.081 63.6223C375.323 62.9225 373.137 61.8592 371.541 60.4323C369.937 59.0054 369.143 57.115 369.143 54.7429C369.143 52.798 369.678 51.0894 370.758 49.6261C371.827 48.1629 373.294 47.0268 375.148 46.2179C377.011 45.4 379.114 45 381.456 45C383.836 45 385.92 45.4 387.719 46.2179C389.517 47.0268 390.929 48.1538 391.952 49.5897C392.976 51.0257 393.511 52.6707 393.539 54.5338H387.691Z" />
  </symbol>
  <symbol id='icon-react' viewBox="0 0 1574 544">
    <path d="M417.7 22h-1.8c-9.8.2-20.2 2.54-30.8 6.46-21.3 7.82-44.4 22.33-67.9 42.79-4.6 4.01-9.3 8.31-14 12.81-3.1-3-6.2-5.8-9.3-8.6-24.9-22.08-49.4-37.61-71.8-45.98-11.2-4.18-22.1-6.69-32.3-6.93-10.2-.25-19.7 1.75-28 6.59-16.2 9.33-25 27.71-28.8 50.02-3.9 22.44-2.9 49.64 3.1 80.24 1.2 6.1 2.6 12.3 4.2 18.7-7.2 2-14.2 4.2-20.8 6.5-29.13 10.1-52.69 22.9-69.61 37.3C32.97 236.4 22 253.2 22 271.5c0 18.9 11.53 36.4 29.36 51.6 17.83 15.3 42.71 28.9 73.44 39.3 4.9 1.7 9.9 3.3 15.1 4.8-1.7 6.8-3.2 13.5-4.4 20-5.7 30.3-6.4 57.1-2.4 79 4.1 21.9 13.2 39.8 29.1 48.9 16.3 9.5 37.2 8.2 59.4.4 22.1-7.8 46.2-22.6 70.6-44 3.9-3.4 7.8-7 11.7-10.8 5.1 4.9 10.2 9.6 15.3 13.9 23.3 20.1 46.1 34.1 67.1 41.5 21 7.4 41.1 8.5 56.9-.7 16.4-9.5 25.7-28.2 30-51.3 4.3-23.1 3.5-51.4-2.8-83.2-1-4.9-2.1-10-3.3-15 3.5-1.1 7-2.2 10.4-3.3 31.6-10.4 57.3-23.8 75.8-39s30.5-32.8 30.5-52.1c0-18.6-11.5-35.4-28.9-50-17.4-14.5-41.5-27.3-71-37.4-5.8-2-11.8-3.9-18-5.7 1-4.1 2-8.2 2.8-12.3 6.7-32.6 7.9-61.6 4-85.23-4-23.62-13.2-42.82-29.9-52.46-7.5-4.36-16.1-6.34-25.1-6.41zM416 46.15c6.3-.16 11.3 1 14.8 3.05 7.6 4.35 14.9 16.05 18.2 35.57 3.3 19.63 2.4 46.03-3.9 76.43-.8 3.7-1.6 7.4-2.5 11.2-23.2-5.4-48.5-9.4-75.1-11.9-15.3-21.8-31.3-41.8-47.5-59.3 4.4-4.13 8.6-8.13 12.9-11.83 21.9-19.01 43-31.96 60.5-38.38 8.7-3.21 16.3-4.68 22.6-4.84zm-228.8.55h2.4c6.7.19 14.8 1.8 24.1 5.26 18.6 6.94 41.1 20.9 64.2 41.5 2.8 2.5 5.6 5.1 8.4 7.84-16.2 17.4-32.3 37.3-47.8 59.1-26.5 2.5-51.8 6.5-74.9 11.7-1.5-5.9-2.8-11.7-3.9-17.3-5.6-28.4-6.2-53.2-3.1-71.54 3.2-18.33 10.1-29.23 17.2-33.35 3.3-1.91 7.8-3.08 13.4-3.22zm116 71.8c11.1 11.9 22.1 25.3 33 39.8-10.9-.5-22.1-.8-33.3-.8-11.1 0-22.1.3-33 .8 11-14.5 22.2-27.8 33.3-39.8zm454 23.8v229.2h28.6v-91.1h45.7l58.4 91.1h33.7L861.7 278c31.3-2.8 59.5-25.4 59.5-66.7 0-42.2-29.9-69-71.9-69h-92.1zm726.8 17.8v45.4h-27v22.7h27v108.6c0 24.7 13 38.8 37 38.8 15 0 25-4.5 31-10.7l-8-19.2c-3 3.8-10 6.9-17 6.9-11 0-17-9-17-21.3V228.2h34v-22.7h-34v-45.4h-26zm-698.2 7.6h60.1c27.1 0 45.7 17.9 45.7 43.6 0 25.8-18.6 44-45.7 44h-60.1v-87.6zm-482.9 13.8c17.5 0 34.6.7 51.2 1.9 9.4 13.8 18.5 28.3 27.2 43.3 8.7 15 16.8 30.1 24.1 45-7.3 15.1-15.3 30.4-24.1 45.5-8.7 15.1-17.7 29.6-27 43.5-16.7 1.2-33.9 1.8-51.4 1.8-17.3 0-34.3-.6-50.9-1.6-9.4-13.9-18.6-28.4-27.4-43.5-8.8-15.1-16.8-30.3-24-45.3 7.2-15.1 15.2-30.2 23.9-45.3 8.7-15.1 17.9-29.6 27.3-43.4 16.6-1.2 33.7-1.9 51.1-1.9zm-82 5c-5.9 9.2-11.6 18.6-17.2 28.3s-10.8 19.4-15.8 29c-7.1-16.6-13-32.9-17.9-48.5 16-3.6 33-6.5 50.9-8.8zm164 .1c18 2.2 35.2 5.3 51.2 8.9-4.8 15.6-10.9 31.8-18 48.4-5.1-9.7-10.5-19.5-16.1-29.2-5.6-9.6-11.3-19-17.1-28.1zm-238.2 14.6c7 22.7 16.2 46.6 27.4 70.9-11.4 24.7-20.7 48.9-27.8 71.9-4.7-1.3-9.3-2.8-13.8-4.3-28.4-9.7-50.82-22.2-65.53-34.8C52.25 292.3 46 280.1 46 271.5c0-8.3 5.71-19.5 19.49-31.3 13.77-11.8 34.91-23.6 61.91-33 6.1-2.1 12.6-4.1 19.3-6zm876.3.2c-47.5 0-81.9 38.8-81.9 86.9 0 51.9 35.4 87.3 83.9 87.3 27 0 50-8.9 66-25.4l-12-16.9c-13 13.4-32 21-51 21-35.7 0-57.7-26.1-59.7-57.4H1102v-6.5c0-49.9-29-89-79-89zm178 0c-27 0-48 8.9-66 27.5l12 17.8c15-15.8 31-23 51-23 24 0 42 12.7 42 35.1v29.9c-14-15.5-33-22.7-55-22.7-28 0-58 17.5-58 54.6 0 36.1 30 55 58 55 22 0 41-7.9 55-23v18.9h25V257.4c0-40.2-29-56-64-56zm184 0c-49 0-83 37.8-83 86.9 0 49.5 34 87.3 83 87.3 30 0 48-12.4 61-28.9l-17-15.8c-11 14.8-25 21.7-42 21.7-36 0-58-27.5-58-64.3s22-63.9 58-63.9c17 0 31 6.5 42 21.6l17-15.8c-13-16.5-31-28.8-61-28.8zm-925.5.1c5.7 1.7 11.3 3.5 16.6 5.3 27.4 9.4 49.2 21.2 63.5 33.2 14.2 11.9 20.2 23.3 20.2 31.5 0 8.7-6.4 20.9-21.7 33.5-15.4 12.6-38.7 25.1-68.1 34.9-3.1 1-6.2 2-9.4 2.9-7.2-22.8-16.9-46.8-28.5-71.1 11.2-24 20.4-47.6 27.4-70.2zm-156.6 19.9a50.17 50.17 0 0 0-50.1 50.1 50.17 50.17 0 0 0 50.1 50.2 50.17 50.17 0 0 0 50.2-50.2 50.17 50.17 0 0 0-50.2-50.1zm719.1 1.3c38 0 54 30.6 55 55.3H968.3c1.3-25.4 18.9-55.3 53.7-55.3zm172 61.8c18 0 36 6.9 46 20.6v31.3c-10 13.8-28 20.6-46 20.6-24 0-41-15.1-41-36 0-21.4 17-36.5 41-36.5zm-775.6 15c7.4 17 13.8 33.6 18.8 49.4-16.3 3.7-33.9 6.7-52.3 8.9 5.8-9.3 11.6-18.9 17.2-28.6 5.7-9.9 11.1-19.8 16.3-29.7zm-230.5.8c5 9.7 10.3 19.4 15.9 29.1 5.7 9.8 11.6 19.4 17.6 28.8-18.2-2-35.6-4.8-51.7-8.3 4.9-15.9 11-32.5 18.2-49.6zM443.8 372c1.2 4.6 2.2 9.2 3.1 13.6 5.8 29.4 6.2 55.1 2.7 74.1-3.5 19.1-11 30.6-18.4 34.9-7.2 4.2-19.8 4.9-36.9-1.1-17.1-6.1-37.9-18.5-59.5-37.1-4.7-4-9.4-8.3-14.1-12.9 16.1-17.6 31.9-37.8 47.1-59.8 27-2.4 52.6-6.3 76-11.7zm-280.6 1.1c23.4 5.2 48.9 8.8 75.7 10.9 15.6 22 31.9 42.1 48.2 59.6-3.6 3.5-7.1 6.8-10.7 9.9-22.5 19.7-44.6 32.9-62.8 39.3-18.3 6.5-32 5.8-39.4 1.5-7.2-4.1-14.1-14.7-17.5-32.5-3.3-17.8-2.9-42 2.4-70.1 1.1-6 2.5-12.2 4.1-18.6zm173.6 12.6c-10.9 14.8-21.9 28.4-32.9 40.6-11.3-12.2-22.7-25.8-33.8-40.4 10.8.4 21.7.6 32.8.6 11.4 0 22.7-.3 33.9-.8z"/>
  </symbol>
  <symbol id='icon-strapi' viewBox="0 0 875.004 212">
    <g>
      <path d="M843.999 31.11c3.585 3.598 7.818 5.396 12.7 5.396 5.034 0 9.343-1.798 12.928-5.396 3.585-3.597 5.377-7.844 5.377-12.742s-1.792-9.184-5.377-12.858C866.042 1.837 861.733 0 856.699 0c-4.882 0-9.115 1.837-12.7 5.51-3.585 3.674-5.377 7.96-5.377 12.858s1.792 9.145 5.377 12.742zM457.976 78.074c0 .376-.305.681-.681.681h-25.176v47.756c0 3.98.992 6.888 2.975 8.725s4.881 2.87 8.695 3.1c3.489.21 7.744.196 12.765-.043l.129-.006.232-.011.344-.018c.39-.02.717.291.717.681v25.536a.68.68 0 0 1-.605.676l-.462.05c-19.724 2.11-33.669.158-41.837-5.857-8.314-6.123-12.471-17.067-12.471-32.833V78.755h-19.226a.681.681 0 0 1-.681-.68v-27.11c0-.375.305-.68.681-.68h19.226V31.323c0-.54.319-1.028.812-1.246l27.75-12.255a.68.68 0 0 1 .956.623v31.84h25.176c.376 0 .681.305.681.68zM511.501 70.029c2.746-7.347 7.284-12.858 13.615-16.531 5.793-3.362 12.194-5.186 19.201-5.47.339-.015.858-.025 1.277-.031.379-.006.688.3.688.678V79.83c0 .65-.565 1.151-1.213 1.092-8.512-.772-16.155 1.107-22.928 5.638-7.093 4.745-10.64 12.628-10.64 23.648v54.193a.681.681 0 0 1-.681.681h-28.156a.681.681 0 0 1-.681-.681V50.964c0-.376.305-.68.681-.68h28.156c.376 0 .681.304.681.68z"/>
      <path clip-rule="evenodd" d="M651.074 50.282a.681.681 0 0 0-.681.68v12.866c-8.848-11.174-21.28-16.76-37.298-16.76-15.255 0-28.335 5.854-39.243 17.563-10.907 11.71-16.36 26.06-16.36 43.05s5.453 31.34 16.36 43.05c10.908 11.709 23.988 17.564 39.243 17.564 16.018 0 28.45-5.587 37.298-16.761V164.4c0 .376.305.68.681.68h28.156a.68.68 0 0 0 .681-.68V50.962a.681.681 0 0 0-.681-.68zM595.931 131.1c5.95 5.97 13.501 8.955 22.654 8.955s16.742-3.023 22.767-9.069c6.026-6.046 9.039-13.814 9.039-23.305 0-9.49-3.013-17.258-9.039-23.304-6.025-6.046-13.614-9.069-22.767-9.069s-16.704 3.023-22.654 9.07c-5.949 6.045-8.924 13.813-8.924 23.303 0 9.491 2.975 17.297 8.924 23.419zM808.117 64.631c-10.907-11.71-24.065-17.564-39.472-17.564-16.017 0-28.374 5.587-37.069 16.76V50.963a.681.681 0 0 0-.681-.68h-28.156a.681.681 0 0 0-.681.68V210.32c0 .376.305.681.681.681h28.156a.681.681 0 0 0 .681-.681v-58.785c8.695 11.174 21.052 16.761 37.069 16.761 15.407 0 28.565-5.855 39.472-17.564 10.907-11.71 16.36-26.06 16.36-43.05s-5.453-31.34-16.36-43.05zm-67.619 66.47c5.949 5.97 13.5 8.955 22.653 8.955s16.742-3.023 22.768-9.069c6.025-6.046 9.038-13.814 9.038-23.305 0-9.49-3.013-17.258-9.038-23.304-6.026-6.046-13.615-9.069-22.768-9.069s-16.704 3.023-22.653 9.07c-5.95 6.045-8.924 13.813-8.924 23.303 0 9.491 2.974 17.297 8.924 23.419z" fill-rule="evenodd"/>
      <path d="M842.738 165.083a.681.681 0 0 1-.681-.681V50.965c0-.376.305-.681.681-.681h28.156c.376 0 .681.305.681.681v113.437a.681.681 0 0 1-.681.681zM315.839 90.346c-4.043-1.913-6.064-4.4-6.064-7.462 0-2.908 1.258-5.204 3.775-6.888 2.517-1.683 5.683-2.525 9.496-2.525 7.313 0 12.838 2.86 16.573 8.58a.97.97 0 0 0 1.204.368l24.904-11.055a.677.677 0 0 0 .31-.964 63.103 63.103 0 0 0-.876-1.448c-4.269-6.734-9.791-11.75-16.715-15.571-7.628-4.21-16.094-6.314-25.4-6.314-12.356 0-22.691 3.253-31.005 9.758S279.57 72.246 279.57 83.573c0 7.5 2.022 13.738 6.064 18.712 4.043 4.975 8.962 8.61 14.759 10.906s11.594 4.209 17.391 5.74c5.796 1.531 10.716 3.253 14.759 5.166 4.042 1.913 6.063 4.401 6.063 7.462 0 6.582-5.263 9.873-15.788 9.873-10.02 0-16.963-3.716-20.83-11.146-.332-.639-1.092-.931-1.75-.638l-24.834 11.041a.678.678 0 0 0-.337.914c.101.208.207.426.284.581 8.679 17.407 24.501 26.111 47.467 26.111 13.119 0 24.064-3.176 32.835-9.529 8.772-6.352 13.158-15.421 13.158-27.207 0-7.806-2.022-14.312-6.064-19.516-4.043-5.204-8.962-8.916-14.759-11.135a152.174 152.174 0 0 0-17.39-5.51c-5.797-1.455-10.717-3.139-14.759-5.052z"/>
    </g>
    <path d="M0 73.493c0-34.645 0-51.967 10.763-62.73C21.526 0 38.848 0 73.493 0h65.014c34.645 0 51.967 0 62.73 10.763C212 21.526 212 38.848 212 73.493v65.014c0 34.645 0 51.967-10.763 62.73S173.152 212 138.507 212H73.493c-34.645 0-51.967 0-62.73-10.763C0 190.474 0 173.152 0 138.507z" fill="#4945ff"/>
    <path clip-rule="evenodd" d="M146.28 64.307H74.906V100.7H111.3v36.393h36.393V65.72c0-.78-.633-1.413-1.413-1.413z" fill="#fff" fill-rule="evenodd"/>
    <path d="M109.886 100.7h1.413v1.413h-1.413z" fill="#fff"/>
    <path d="M74.906 100.7h34.98c.781 0 1.414.633 1.414 1.413v34.98H76.32c-.781 0-1.414-.632-1.414-1.413zM111.3 137.093h36.393l-35.187 35.187a.706.706 0 0 1-1.206-.499zM74.906 100.7H40.22a.707.707 0 0 1-.5-1.206l35.187-35.187z" fill="#9593ff"/>
  </symbol>
  <symbol id='icon-figma' viewBox="0 0 14.397 7.2">
    <path d="M2.156 6.46c.526 0 .953-.427.953-.953v-.953h-.953c-.526 0-.953.427-.953.953s.427.953.953.953z" fill="#0acf83"/>
    <path d="M1.202 3.6c0-.526.427-.953.953-.953h.953v1.907h-.953c-.526 0-.953-.427-.953-.953z" fill="#a259ff"/>
    <path d="M1.202 1.693c0-.526.427-.953.953-.953h.953v1.907h-.953c-.526 0-.953-.427-.953-.953z" fill="#f24e1e"/>
    <path d="M3.1.74h.953c.526 0 .953.427.953.953s-.427.953-.953.953H3.1z" fill="#ff7262"/>
    <path d="M5.016 3.6c0 .526-.427.953-.953.953S3.1 4.126 3.1 3.6s.427-.953.953-.953.953.427.953.953z" fill="#1abcfe"/>
    <path d="M6.058 2.32v1.998h.257v-.954h.618v-.248h-.618V2.57h.803v-.25zm1.525.406c.093 0 .168-.075.168-.168S7.675 2.4 7.583 2.4s-.168.075-.168.168c0 .045.018.087.05.12s.074.05.12.05zm-.13.252v1.34H7.7v-1.34h-.255zm1.212-.04c-.342 0-.58.3-.58.632s.24.63.58.63a.51.51 0 0 0 .379-.159v.178a.42.42 0 0 1-.116.287.4.4 0 0 1-.286.12.42.42 0 0 1-.228-.076l-.13.223a.66.66 0 0 0 1.017-.557v-1.24h-.257v.12a.51.51 0 0 0-.379-.159zm-.322.632a.35.35 0 0 1 .166-.33c.114-.07.257-.07.37 0s.177.198.166.33a.35.35 0 0 1-.166.33c-.114.07-.257.07-.37 0s-.177-.198-.166-.33z"/>
    <path d="M10.228 3.2a.28.28 0 0 0-.279.279v.848h-.257v-1.34h.257V3.1c.078-.104.202-.164.332-.162.164-.004.317.084.398.227.1-.14.244-.225.4-.227.293 0 .475.236.476.528v.853h-.257v-.85a.28.28 0 0 0-.427-.276.28.28 0 0 0-.124.276v.848H10.5V3.47a.28.28 0 0 0-.279-.279zm2.7-.07a.62.62 0 0 0-.453-.191c-.383 0-.65.324-.65.7s.27.7.65.7a.62.62 0 0 0 .453-.191V4.3h.257V2.96h-.257zm-.85.52c-.013-.16.065-.314.202-.398s.3-.084.446 0a.43.43 0 0 1 .202.398c.013.16-.065.314-.202.398s-.3.084-.446 0a.43.43 0 0 1-.202-.398z">
    </symbol>
  </svg>